 <svg version="1.0" xmlns="http://www.w3.org/2000/svg" width="700.000000pt" height="215.000000pt" viewBox="0 0 700.000000 215.000000" preserveAspectRatio="xMidYMid meet">
<metadata>
Created by potrace 1.12, written by Peter Selinger 2001-2015
</metadata>
<g transform="translate(0.000000,215.000000) scale(0.100000,-0.100000)" fill="#000000" stroke="none">
<path d="M537 1644 c-74 -18 -117 -40 -117 -62 0 -12 -3 -13 -8 -5 -12 19 -86
-31 -147 -99 -62 -67 -111 -164 -130 -255 -19 -87 -19 -117 1 -210 23 -115 67
-196 149 -279 217 -220 553 -220 770 0 52 52 77 87 95 131 13 33 29 69 36 80
7 11 17 54 22 95 22 178 -32 336 -157 461 -134 134 -328 188 -514 143z m148
-48 c49 -53 87 -57 147 -14 20 14 73 0 73 -20 0 -7 -16 -20 -35 -30 -50 -24
-50 -52 -2 -120 22 -32 56 -90 76 -129 34 -69 56 -91 56 -58 0 29 -57 140
-104 203 l-47 63 35 14 c55 23 79 18 130 -26 43 -38 46 -44 46 -87 -1 -46 -18
-132 -37 -182 -7 -17 -6 -40 2 -70 l12 -45 21 48 c26 59 52 155 52 194 0 16
-7 38 -15 50 -10 14 -11 24 -5 28 11 7 27 -28 59 -125 31 -97 43 -176 36 -240
-11 -91 -16 -93 -80 -22 -31 34 -60 62 -65 62 -21 0 5 -96 41 -149 42 -62 39
-80 -13 -65 -30 9 -33 13 -33 49 0 51 -17 57 -29 11 -12 -44 10 -81 53 -89 56
-11 32 -57 -29 -57 -43 0 -67 -22 -76 -68 -7 -33 -38 -69 -48 -54 -3 5 -1 26
5 46 20 73 -22 99 -147 92 -46 -3 -71 -11 -103 -31 -41 -27 -42 -28 -62 -9
-12 10 -48 55 -81 99 -60 79 -124 142 -134 132 -21 -20 49 -148 127 -232 22
-24 38 -48 35 -54 -3 -5 -28 -14 -56 -21 l-49 -12 -61 43 c-70 49 -73 64 -40
170 10 34 17 66 14 71 -12 19 -33 -16 -49 -80 -27 -105 -24 -101 -51 -67 -28
35 -29 43 -9 81 8 16 15 37 15 48 0 10 10 56 22 102 l22 84 -47 90 c-50 96
-56 120 -33 139 11 9 18 6 33 -15 29 -39 48 -22 23 19 -27 43 -25 49 13 45 32
-3 32 -3 29 -53 -3 -40 1 -54 16 -68 19 -17 20 -17 31 14 6 18 11 45 11 61 0
28 2 29 34 27 23 -2 42 3 55 15 29 26 27 31 -20 49 l-41 16 34 63 c47 84 73
92 147 41 50 -35 52 -38 35 -50 -69 -48 -108 -80 -112 -90 -7 -23 18 -14 77
27 81 55 88 75 40 120 -17 15 -28 33 -25 39 13 21 50 11 81 -23z m107 8 c13
-8 -1 -24 -22 -24 -26 0 -70 21 -70 33 0 9 74 2 92 -9z m-412 -68 c0 -27 -36
-60 -56 -52 -17 7 -16 10 16 36 41 34 40 34 40 16z m-180 -263 c0 -9 16 -45
36 -81 l36 -64 -21 -72 c-12 -39 -21 -90 -21 -113 0 -24 -4 -43 -9 -43 -14 0
-53 114 -61 182 -6 56 2 170 15 206 6 17 25 6 25 -15z m660 -503 c20 -6 24
-12 22 -36 -5 -49 -35 -97 -65 -107 -24 -8 -37 -4 -85 26 -31 20 -57 40 -57
46 0 5 25 28 55 49 56 40 60 41 130 22z m190 -9 c0 -10 -62 -61 -74 -61 -11 0
22 58 36 63 21 9 38 8 38 -2z m-405 -121 c24 -16 55 -30 69 -30 14 0 26 -4 26
-10 0 -16 -48 -12 -83 7 -20 10 -59 16 -104 17 -42 1 -77 6 -85 14 -18 18 -1
27 31 15 21 -7 36 -7 57 3 40 17 40 17 89 -16z"></path>
<path d="M694 1431 c-37 -23 -48 -37 -39 -52 4 -6 19 0 40 15 19 15 37 26 42
26 5 0 28 -31 52 -70 42 -69 61 -86 61 -55 0 36 -93 155 -120 155 -3 0 -19 -9
-36 -19z"></path>
<path d="M416 1349 c-20 -29 -20 -39 -1 -39 19 0 40 39 27 52 -6 6 -15 2 -26
-13z"></path>
<path d="M640 1345 c-7 -8 -23 -15 -35 -15 -14 0 -39 -18 -67 -48 -105 -112
-104 -135 7 -214 44 -31 118 -77 165 -101 72 -38 94 -45 143 -44 l57 0 0 33
c0 18 5 36 10 39 27 17 4 134 -34 174 -13 14 -27 36 -30 48 -7 21 -102 91
-172 126 -28 15 -33 15 -44 2z m49 -71 c100 -55 190 -122 196 -147 26 -111 26
-120 -10 -157 l-34 -34 -97 49 c-90 45 -264 160 -264 174 0 13 121 151 132
151 6 0 41 -16 77 -36z"></path>
<path d="M512 918 c2 -7 43 -33 91 -57 64 -33 90 -42 98 -34 9 9 -12 23 -80
57 -95 48 -115 54 -109 34z"></path>
<path d="M6571 1366 c-19 -23 -6 -45 35 -62 30 -12 34 -17 23 -30 -17 -21 -2
-31 18 -12 18 19 11 46 -14 54 -52 16 -59 39 -13 39 36 1 31 19 -6 23 -19 2
-36 -3 -43 -12z"></path>
<path d="M6697 1374 c-11 -11 -8 -114 3 -114 6 0 10 17 10 38 l0 37 24 -30 24
-30 13 28 c17 37 29 34 29 -8 0 -19 5 -35 10 -35 11 0 14 103 3 114 -4 4 -20
-8 -35 -26 -23 -27 -30 -30 -37 -18 -23 36 -37 51 -44 44z"></path>
<path d="M1769 1342 c-182 -95 -182 -359 0 -454 44 -23 66 -28 125 -28 83 0
135 21 184 72 l33 35 -51 37 c-52 37 -52 37 -74 18 -73 -67 -159 -52 -198 35
-52 117 53 234 161 179 15 -8 33 -22 40 -30 11 -13 19 -11 62 22 27 20 49 42
49 49 0 16 -56 58 -103 78 -21 8 -66 15 -106 15 -56 0 -79 -5 -122 -28z"></path>
<path d="M2244 1355 c-3 -6 -3 -118 -2 -249 l3 -238 65 -1 65 -1 0 137 c0 75
2 137 5 137 3 0 30 -39 60 -86 30 -47 58 -88 62 -90 4 -3 33 36 65 86 32 49
60 90 63 90 3 0 5 -62 5 -137 l0 -137 65 1 65 1 3 238 c1 131 1 243 -2 249 -2
6 -32 9 -74 7 l-71 -4 -52 -84 c-29 -47 -56 -87 -60 -89 -6 -5 -74 94 -105
154 -12 22 -19 24 -85 25 -40 1 -73 -3 -75 -9z"></path>
<path d="M2934 1355 c-3 -6 -3 -118 -2 -249 l3 -238 65 -1 65 -1 -1 137 c0 75
2 137 5 137 3 0 25 -31 48 -69 24 -37 51 -78 61 -91 l18 -22 59 90 60 91 5
-136 5 -135 65 0 65 0 3 238 c1 131 1 243 -2 249 -2 6 -31 8 -76 5 l-72 -5
-52 -85 c-29 -47 -57 -85 -61 -85 -4 0 -33 40 -64 89 l-56 89 -69 1 c-38 0
-70 -3 -72 -9z"></path>
<path d="M3624 1355 c-3 -6 -3 -118 -2 -250 l3 -239 65 1 65 1 0 247 0 247
-64 1 c-35 1 -65 -2 -67 -8z"></path>
<path d="M4025 1356 c-49 -21 -85 -71 -85 -116 0 -83 35 -115 164 -150 98 -26
114 -35 126 -66 41 -108 -129 -155 -246 -68 l-32 23 -18 -20 c-18 -20 -18 -21
1 -36 72 -54 186 -77 258 -54 20 7 50 28 67 47 25 29 30 43 30 86 0 74 -39
108 -157 139 -131 34 -172 84 -120 145 35 40 114 45 182 10 48 -25 50 -25 68
-7 18 18 18 19 -10 38 -61 43 -166 56 -228 29z"></path>
<path d="M4418 1364 c-3 -3 1 -19 10 -37 8 -17 57 -128 107 -247 124 -294 110
-295 246 22 57 133 105 246 107 250 6 13 -30 22 -46 12 -8 -6 -51 -99 -96
-207 -45 -108 -85 -198 -91 -198 -5 -1 -46 85 -90 192 -44 107 -84 200 -88
207 -8 12 -49 17 -59 6z"></path>
<path d="M5170 1357 c-19 -6 -56 -32 -82 -58 -104 -104 -103 -265 1 -369 54
-54 96 -70 182 -70 58 0 140 32 173 69 15 17 15 19 -4 36 -19 17 -21 17 -54
-13 -91 -79 -235 -46 -293 68 -54 105 -3 250 100 289 62 24 155 5 203 -40 21
-19 21 -19 39 0 25 28 15 44 -46 75 -42 21 -66 26 -118 25 -37 -1 -82 -6 -101
-12z"></path>
<path d="M5791 1123 c-68 -137 -123 -250 -122 -253 0 -3 9 -6 20 -8 17 -3 39
34 145 246 69 137 122 252 119 256 -25 24 -45 -5 -162 -241z"></path>
<path d="M6079 1360 c-1 -3 -1 -27 -1 -55 l0 -50 92 -3 92 -3 -55 -52 c-53
-50 -55 -54 -46 -84 9 -31 13 -33 52 -33 57 0 91 -19 95 -52 7 -61 -85 -75
-148 -21 l-31 26 -44 -43 c-43 -42 -44 -45 -27 -63 34 -39 112 -67 187 -67
127 1 198 57 199 161 1 56 -23 95 -73 121 -18 9 -35 19 -39 22 -3 4 20 29 52
57 55 50 57 53 54 96 l-3 45 -178 1 c-97 1 -177 0 -178 -3z"></path>
<path d="M6560 1270 c0 -13 28 -25 38 -16 3 4 0 11 -8 16 -20 13 -30 12 -30 0z"></path>
<path d="M4365 750 c-3 -5 -1 -10 4 -10 6 0 11 5 11 10 0 6 -2 10 -4 10 -3 0
-8 -4 -11 -10z"></path>
<path d="M1680 679 c0 -49 4 -69 12 -67 17 6 18 138 1 138 -10 0 -13 -19 -13
-71z"></path>
<path d="M2210 740 c0 -5 9 -10 20 -10 12 0 24 -9 29 -22 8 -21 10 -21 16 -5
4 9 2 24 -5 32 -14 17 -60 21 -60 5z"></path>
<path d="M2503 743 c-21 -8 -15 -20 10 -19 19 1 22 -4 20 -32 -1 -30 0 -32 13
-15 31 42 3 85 -43 66z"></path>
<path d="M3026 725 c-16 -25 -16 -26 10 -35 14 -6 28 -19 31 -30 6 -24 23 -27
23 -5 0 9 -11 26 -25 39 -30 28 -31 36 -5 36 11 0 20 5 20 10 0 20 -38 9 -54
-15z"></path>
<path d="M3253 729 c4 -13 7 -45 7 -71 0 -27 5 -48 10 -48 17 0 8 132 -9 138
-10 3 -12 -1 -8 -19z"></path>
<path d="M3365 735 c4 -11 9 -27 12 -35 2 -9 -7 -32 -21 -53 -28 -41 -21 -50
12 -14 32 35 37 69 12 98 -18 20 -21 21 -15 4z"></path>
<path d="M4650 680 c0 -40 4 -70 10 -70 6 0 10 30 10 70 0 40 -4 70 -10 70 -6
0 -10 -30 -10 -70z"></path>
<path d="M4930 741 c0 -6 9 -11 19 -11 29 0 34 -16 17 -52 -16 -31 -16 -31 4
-13 14 13 20 29 18 49 -2 25 -8 32 -30 34 -16 2 -28 -1 -28 -7z"></path>
<path d="M5238 745 c-1 -6 -2 -26 -2 -45 -1 -32 -3 -35 -28 -32 -31 3 -38 -15
-10 -24 9 -3 25 -10 36 -16 27 -14 36 6 29 62 -5 42 -21 77 -25 55z"></path>
<path d="M5360 741 c0 -5 7 -12 16 -15 16 -6 16 -14 -1 -61 -6 -17 -4 -17 14
4 24 26 27 51 9 69 -14 14 -38 16 -38 3z"></path>
<path d="M5483 743 c-21 -8 -15 -20 10 -19 23 1 27 -18 13 -59 -7 -17 -5 -17
13 4 40 45 15 95 -36 74z"></path>
<path d="M2337 733 c-4 -3 -7 -27 -7 -53 0 -35 5 -52 21 -66 21 -19 21 -18 45
9 26 30 29 52 14 91 -13 36 -32 34 -20 -1 12 -34 -1 -88 -21 -88 -10 0 -14 14
-14 58 0 55 -4 65 -18 50z"></path>
<path d="M2616 724 c-15 -40 1 -114 25 -114 6 0 6 7 -1 19 -14 27 -13 84 2 99
9 9 8 12 -4 12 -9 0 -19 -7 -22 -16z"></path>
<path d="M2670 725 c8 -10 11 -32 8 -60 -5 -44 4 -61 16 -29 16 41 3 104 -21
104 -13 0 -13 -3 -3 -15z"></path>
<path d="M2856 724 c-13 -34 -4 -104 14 -104 4 0 5 20 2 45 -3 28 0 50 8 60
10 12 10 15 -3 15 -8 0 -18 -7 -21 -16z"></path>
<path d="M2910 725 c8 -10 11 -32 8 -60 -5 -44 4 -61 16 -29 16 41 3 104 -21
104 -13 0 -13 -3 -3 -15z"></path>
<path d="M3314 726 c-8 -20 -1 -49 11 -53 6 -2 10 13 10 32 0 36 -11 47 -21
21z"></path>
<path d="M3540 724 c0 -8 5 -12 10 -9 6 3 10 10 10 16 0 5 -4 9 -10 9 -5 0
-10 -7 -10 -16z"></path>
<path d="M3737 720 c-3 -13 0 -20 8 -20 7 0 20 -19 27 -42 8 -23 20 -44 27
-46 15 -5 10 15 -20 84 -22 48 -34 55 -42 24z"></path>
<path d="M4782 715 c-12 -25 -1 -42 18 -30 12 7 13 55 2 55 -5 0 -14 -11 -20
-25z"></path>
<path d="M5054 726 c-8 -21 -1 -59 11 -63 7 -2 11 13 10 37 0 40 -11 53 -21
26z"></path>
<path d="M5104 695 c-1 -29 -8 -53 -20 -67 -19 -21 -19 -21 2 -10 34 18 45 39
42 78 -4 54 -23 53 -24 -1z"></path>
<path d="M4827 713 c-12 -11 -8 -23 8 -23 8 0 15 7 15 15 0 16 -12 20 -23 8z"></path>
<path d="M1816 702 c-3 -6 1 -15 9 -22 8 -7 15 -18 15 -24 1 -11 50 -52 50
-41 0 3 -6 14 -12 25 -10 16 -10 24 0 41 12 19 11 20 -8 14 -11 -4 -27 -2 -35
5 -8 6 -16 7 -19 2z"></path>
<path d="M1963 703 c-21 -4 -23 -10 -23 -74 0 -39 4 -69 10 -69 10 0 11 8 14
85 1 51 29 57 34 8 4 -43 22 -43 22 0 0 30 -15 59 -29 56 -4 -1 -16 -4 -28 -6z"></path>
<path d="M3883 703 c-21 -4 -23 -10 -23 -74 0 -39 4 -69 10 -69 10 0 11 8 14
85 1 51 29 57 34 8 4 -43 22 -43 22 0 0 30 -15 59 -29 56 -4 -1 -16 -4 -28 -6z"></path>
<path d="M4040 703 c0 -3 7 -14 16 -24 16 -18 12 -59 -7 -59 -5 0 -9 -5 -9
-10 0 -7 6 -7 20 0 29 15 36 56 15 80 -18 20 -35 26 -35 13z"></path>
<path d="M4163 702 c-13 -2 -23 -7 -23 -12 0 -15 14 -17 38 -5 27 14 19 23
-15 17z"></path>
<path d="M4450 700 c0 -5 5 -10 11 -10 5 0 7 5 4 10 -3 6 -8 10 -11 10 -2 0
-4 -4 -4 -10z"></path>
<path d="M4000 630 c0 -40 4 -70 10 -70 10 0 12 8 14 90 1 34 -3 50 -11 50 -9
0 -13 -21 -13 -70z"></path>
<path d="M4235 690 c-3 -5 -1 -10 4 -10 6 0 11 5 11 10 0 6 -2 10 -4 10 -3 0
-8 -4 -11 -10z"></path>
<path d="M4274 659 c1 -24 7 -44 15 -47 9 -3 11 8 9 39 -4 57 -26 64 -24 8z"></path>
<path d="M4360 661 c0 -22 5 -43 10 -46 6 -4 10 12 10 39 0 25 -4 46 -10 46
-5 0 -10 -18 -10 -39z"></path>
<path d="M4525 690 c-3 -5 -1 -10 4 -10 6 0 11 5 11 10 0 6 -2 10 -4 10 -3 0
-8 -4 -11 -10z"></path>
<path d="M4564 659 c1 -24 7 -44 15 -47 9 -3 11 8 9 39 -4 57 -26 64 -24 8z"></path>
<path d="M1740 680 c0 -5 5 -10 10 -10 6 0 10 5 10 10 0 6 -4 10 -10 10 -5 0
-10 -4 -10 -10z"></path>
<path d="M4410 680 c0 -5 11 -17 25 -26 14 -9 25 -21 25 -26 0 -6 -11 -7 -25
-4 -29 8 -33 1 -6 -13 13 -7 24 -6 37 4 18 13 18 15 -10 44 -30 32 -46 39 -46
21z"></path>
<path d="M2227 652 c-35 -37 -34 -42 8 -42 19 0 35 5 35 10 0 6 -7 10 -15 10
-18 0 -18 5 -5 31 15 26 8 24 -23 -9z"></path>
<path d="M3520 664 c0 -8 5 -12 10 -9 6 3 10 10 10 16 0 5 -4 9 -10 9 -5 0
-10 -7 -10 -16z"></path>
<path d="M2770 660 c0 -5 9 -10 20 -10 11 0 20 5 20 10 0 6 -9 10 -20 10 -11
0 -20 -4 -20 -10z"></path>
<path d="M3140 660 c0 -5 9 -10 20 -10 11 0 20 5 20 10 0 6 -9 10 -20 10 -11
0 -20 -4 -20 -10z"></path>
<path d="M3706 653 c-3 -10 -9 -24 -12 -30 -3 -7 -1 -13 5 -13 6 0 11 5 11 12
0 6 7 20 17 30 14 16 14 18 1 18 -9 0 -18 -8 -22 -17z"></path>
<path d="M4770 645 c0 -28 15 -34 24 -9 10 25 7 34 -9 34 -9 0 -15 -9 -15 -25z"></path>
<path d="M4817 663 c-12 -11 -8 -23 7 -23 8 0 16 7 20 15 5 15 -14 21 -27 8z"></path>
<path d="M4225 640 c-8 -13 3 -30 20 -30 8 0 11 7 8 20 -6 22 -18 26 -28 10z"></path>
<path d="M4520 636 c0 -17 14 -29 23 -20 8 8 -3 34 -14 34 -5 0 -9 -6 -9 -14z"></path>
<path d="M2497 634 c-15 -16 -5 -24 28 -24 19 0 35 5 35 10 0 6 -6 10 -14 10
-8 0 -21 2 -28 5 -8 3 -17 2 -21 -1z"></path>
<path d="M4146 633 c-11 -11 -6 -23 9 -23 8 0 15 4 15 9 0 13 -16 22 -24 14z"></path>
<path d="M4927 633 c-15 -15 -5 -23 28 -23 39 0 47 14 13 24 -29 7 -33 7 -41
-1z"></path>
<path d="M5347 634 c-15 -16 -5 -24 28 -24 19 0 35 5 35 10 0 6 -6 10 -14 10
-8 0 -21 2 -28 5 -8 3 -17 2 -21 -1z"></path>
<path d="M5477 634 c-15 -16 -5 -24 28 -24 19 0 35 5 35 10 0 6 -6 10 -14 10
-8 0 -21 2 -28 5 -8 3 -17 2 -21 -1z"></path>
<path d="M1760 619 c0 -5 5 -7 10 -4 6 3 10 8 10 11 0 2 -4 4 -10 4 -5 0 -10
-5 -10 -11z"></path>
<path d="M2085 620 c-3 -5 1 -10 10 -10 9 0 13 5 10 10 -3 6 -8 10 -10 10 -2
0 -7 -4 -10 -10z"></path>
<path d="M3016 623 c-3 -3 -3 -10 0 -14 7 -12 34 -11 34 0 0 11 -26 22 -34 14z"></path>
</g>
</svg>